# xmcd
#
# Track frame offsets:
#	182
#	15092
#	29825
#	46570
#	56160
#	71010
#	85732
#	95445
#	110357
#	125535
#	135452
#	152117
#	167990
#	181350
#
# Disc length: 2581 seconds
# Revision: 1
# Processed by: cddbd v1.5.2PL0 Copyright (c) Steve Scherf et al.
# Submitted via: dBpowerAMP V12.0
#
DISCID=b30a130e
DTITLE=Johnny Green - Here I Am Again
DYEAR=1996
DGENRE=Country
TTITLE0=Princess Street Bulimba
TTITLE1=Charlie's Angel
TTITLE2=Where'm I Gonna Live (When I Get Home)
TTITLE3=I Couldn't Forget You
TTITLE4=Pink Champagne and a Room of Roses
TTITLE5=Here I Am Again
TTITLE6=Blackboard of My Heart
TTITLE7=I Still Sing Jambalaya
TTITLE8=Friendship Golden Friendship
TTITLE9=I've Been Lonely Lately
TTITLE10=The Home I Love
TTITLE11=Do What You Do Do Well
TTITLE12=The Lonely Little Phone Box
TTITLE13=This Ole House
EXTD=
EXTT0=
EXTT1=
EXTT2=
EXTT3=
EXTT4=
EXTT5=
EXTT6=
EXTT7=
EXTT8=
EXTT9=
EXTT10=
EXTT11=
EXTT12=
EXTT13=
PLAYORDER=
